<?xml version="1.0" encoding="UTF-8"?>
<svg version="1.1" xmlns="http://www.w3.org/2000/svg" width="500" height="500">
<path d="M0 0 C165 0 330 0 500 0 C500 165 500 330 500 500 C335 500 170 500 0 500 C0 335 0 170 0 0 Z " fill="#000000" transform="translate(0,0)"/>
<path d="M0 0 C45.21 0 90.42 0 137 0 C137 3.3 137 6.6 137 10 C139.64 10 142.28 10 145 10 C145 18.91 145 27.82 145 37 C109.03 37 73.06 37 36 37 C36 61.09 36 85.18 36 110 C69.33 110 102.66 110 137 110 C137 112.97 137 115.94 137 119 C139.97 119 142.94 119 146 119 C146 121.97 146 124.94 146 128 C148.64 128 151.28 128 154 128 C154 136.91 154 145.82 154 155 C148.39 155 142.78 155 137 155 C137 158.3 137 161.6 137 165 C139.97 165 142.94 165 146 165 C146 168.3 146 171.6 146 175 C148.64 175 151.28 175 154 175 C154 219.88 154 264.76 154 311 C109.12 311 64.24 311 18 311 C18 308.03 18 305.06 18 302 C15.03 302 12.06 302 9 302 C9 298.7 9 295.4 9 292 C6.03 292 3.06 292 0 292 C0 246.79 0 201.58 0 155 C5.94 155 11.88 155 18 155 C18 152.03 18 149.06 18 146 C15.03 146 12.06 146 9 146 C9 143.03 9 140.06 9 137 C6.03 137 3.06 137 0 137 C0 91.79 0 46.58 0 0 Z " fill="#E2E0DB" transform="translate(164,100)"/>
<path d="M0 0 C45.21 0 90.42 0 137 0 C137 3.3 137 6.6 137 10 C139.64 10 142.28 10 145 10 C145 18.91 145 27.82 145 37 C109.03 37 73.06 37 36 37 C36 61.09 36 85.18 36 110 C69 110 102 110 136 110 C136 118.91 136 127.82 136 137 C91.12 137 46.24 137 0 137 C0 91.79 0 46.58 0 0 Z " fill="#E3E1DC" transform="translate(164,100)"/>
<path d="M0 0 C0.33 0 0.66 0 1 0 C1 2.97 1 5.94 1 9 C3.97 9 6.94 9 10 9 C10 11.97 10 14.94 10 18 C12.64 18 15.28 18 18 18 C18 26.91 18 35.82 18 45 C12.39 45 6.78 45 1 45 C1 48.3 1 51.6 1 55 C3.97 55 6.94 55 10 55 C10 58.3 10 61.6 10 65 C12.64 65 15.28 65 18 65 C18 109.88 18 154.76 18 201 C-26.88 201 -71.76 201 -118 201 C-118 198.03 -118 195.06 -118 192 C-120.97 192 -123.94 192 -127 192 C-127 188.7 -127 185.4 -127 182 C-85.09 182 -43.18 182 0 182 C0 136.79 0 91.58 0 45 C-38.94 45 -77.88 45 -118 45 C-118 42.03 -118 39.06 -118 36 C-120.97 36 -123.94 36 -127 36 C-127 33.03 -127 30.06 -127 27 C-85.09 27 -43.18 27 0 27 C0 18.09 0 9.18 0 0 Z " fill="#454443" transform="translate(300,210)"/>
<path d="M0 0 C24.09 0 48.18 0 73 0 C73 23.76 73 47.52 73 72 C48.91 72 24.82 72 0 72 C0 48.24 0 24.48 0 0 Z " fill="#000000" transform="translate(200,293)"/>
<path d="M0 0 C2.97 0 5.94 0 9 0 C9 3.3 9 6.6 9 10 C11.64 10 14.28 10 17 10 C17 54.88 17 99.76 17 146 C-27.88 146 -72.76 146 -119 146 C-119 143.03 -119 140.06 -119 137 C-77.09 137 -35.18 137 8 137 C8 94.76 8 52.52 8 9 C5.36 9 2.72 9 0 9 C0 6.03 0 3.06 0 0 Z " fill="#454443" transform="translate(301,265)"/>
<path d="M0 0 C0.33 0 0.66 0 1 0 C1 2.97 1 5.94 1 9 C3.64 9 6.28 9 9 9 C9 51.24 9 93.48 9 137 C-35.88 137 -80.76 137 -127 137 C-127 133.7 -127 130.4 -127 127 C-85.09 127 -43.18 127 0 127 C0 85.09 0 43.18 0 0 Z " fill="#969491" transform="translate(300,265)"/>
<path d="M0 0 C45.21 0 90.42 0 137 0 C137 3.3 137 6.6 137 10 C139.64 10 142.28 10 145 10 C145 18.91 145 27.82 145 37 C109.03 37 73.06 37 36 37 C36 61.09 36 85.18 36 110 C33.03 110 30.06 110 27 110 C27 82.94 27 55.88 27 28 C62.97 28 98.94 28 136 28 C136 19.09 136 10.18 136 1 C91.12 1 46.24 1 0 1 C0 0.67 0 0.34 0 0 Z " fill="#969491" transform="translate(164,100)"/>
<path d="M0 0 C2.97 0 5.94 0 9 0 C9 2.97 9 5.94 9 9 C11.97 9 14.94 9 18 9 C18 18.24 18 27.48 18 37 C-18.3 37 -54.6 37 -92 37 C-92 57.79 -92 78.58 -92 100 C-61.97 100 -31.94 100 -1 100 C-1 100.33 -1 100.66 -1 101 C-34 101 -67 101 -101 101 C-101 76.91 -101 52.82 -101 28 C-65.03 28 -29.06 28 8 28 C8 19.09 8 10.18 8 1 C5.36 1 2.72 1 0 1 C0 0.67 0 0.34 0 0 Z " fill="#454443" transform="translate(301,109)"/>
<path d="M0 0 C27.06 0 54.12 0 82 0 C82 3.3 82 6.6 82 10 C57.91 10 33.82 10 9 10 C9 33.76 9 57.52 9 82 C6.03 82 3.06 82 0 82 C0 54.94 0 27.88 0 0 Z " fill="#959390" transform="translate(191,283)"/>
<path d="M0 0 C0.33 0 0.66 0 1 0 C1 2.97 1 5.94 1 9 C3.64 9 6.28 9 9 9 C9 17.91 9 26.82 9 36 C-35.88 36 -80.76 36 -127 36 C-127 33.03 -127 30.06 -127 27 C-85.09 27 -43.18 27 0 27 C0 18.09 0 9.18 0 0 Z " fill="#959390" transform="translate(300,210)"/>
<path d="M0 0 C24.09 0 48.18 0 73 0 C73 2.97 73 5.94 73 9 C51.88 9 30.76 9 9 9 C9 29.46 9 49.92 9 71 C30.12 71 51.24 71 73 71 C73 71.33 73 71.66 73 72 C48.91 72 24.82 72 0 72 C0 48.24 0 24.48 0 0 Z " fill="#464543" transform="translate(200,293)"/>
<path d="M0 0 C2.97 0 5.94 0 9 0 C9 45.21 9 90.42 9 137 C8.67 137 8.34 137 8 137 C8 94.76 8 52.52 8 9 C5.36 9 2.72 9 0 9 C0 6.03 0 3.06 0 0 Z " fill="#666563" transform="translate(301,265)"/>
<path d="M0 0 C2.97 0 5.94 0 9 0 C9 3.3 9 6.6 9 10 C6.03 10 3.06 10 0 10 C0 6.7 0 3.4 0 0 Z " fill="#72716F" transform="translate(173,392)"/>
<path d="M0 0 C2.97 0 5.94 0 9 0 C9 2.97 9 5.94 9 9 C6.03 9 3.06 9 0 9 C0 6.03 0 3.06 0 0 Z " fill="#72716F" transform="translate(173,237)"/>
<path d="M0 0 C2.64 0 5.28 0 8 0 C8 2.97 8 5.94 8 9 C5.36 9 2.72 9 0 9 C0 6.03 0 3.06 0 0 Z " fill="#737270" transform="translate(301,219)"/>
<path d="M0 0 C2.64 0 5.28 0 8 0 C8 2.64 8 5.28 8 8 C5.36 8 2.72 8 0 8 C0 5.36 0 2.72 0 0 Z " fill="#72716F" transform="translate(301,266)"/>
<path d="M0 0 C2.64 0 5.28 0 8 0 C8 2.64 8 5.28 8 8 C5.36 8 2.72 8 0 8 C0 5.36 0 2.72 0 0 Z " fill="#72716F" transform="translate(301,110)"/>
</svg>
